<!-- Generated by IcoMoon.io -->
<svg version="1.1" xmlns="http://www.w3.org/2000/svg" width="768" height="768" viewBox="0 0 768 768">
<title></title>
<g id="icomoon-ignore">
</g>
<path fill="#000" d="M320 640c-25.664 0-49.76-9.984-67.904-28.128-18.112-18.112-28.096-42.24-28.096-67.872s9.984-49.76 28.128-67.904l92.096-92.096-92.096-92.128c-18.144-18.112-28.128-42.24-28.128-67.872s9.984-49.76 28.128-67.904c36.256-36.224 99.488-36.256 135.776 0.032l227.872 227.872-227.904 227.872c-18.112 18.144-42.208 28.128-67.872 28.128zM320 192c-8.576 0-16.576 3.328-22.624 9.344-6.048 6.080-9.376 14.112-9.376 22.656s3.328 16.576 9.376 22.624l137.344 137.376-137.344 137.376c-6.048 6.048-9.376 14.048-9.376 22.624s3.328 16.576 9.376 22.624c12.096 12.128 33.184 12.096 45.248 0.032l182.656-182.656-182.656-182.624c-6.048-6.048-14.048-9.376-22.624-9.376z"></path>
</svg>
